<svg width="12" height="12" viewBox="0 0 12 12" fill="none" xmlns="http://www.w3.org/2000/svg">
    <path d="M9.33333 5.33329C9.56 5.33329 9.78 5.35996 10 5.39329V3.05329C10 2.51996 9.68667 2.03996 9.2 1.83329L5.53333 0.233291C5.19333 0.0866243 4.80667 0.0866243 4.46667 0.233291L0.8 1.83329C0.313333 2.04662 0 2.52662 0 3.05329V5.45329C0 8.47996 2.13333 11.3133 5 12C5.36667 11.9133 5.72 11.7866 6.06667 11.6333C5.60667 10.98 5.33333 10.1866 5.33333 9.33329C5.33333 7.12663 7.12667 5.33329 9.33333 5.33329Z"
          fill="#828B97"/>
    <path d="M9.33333 6.66663C7.86 6.66663 6.66666 7.85996 6.66666 9.33329C6.66666 10.8066 7.86 12 9.33333 12C10.8067 12 12 10.8066 12 9.33329C12 7.85996 10.8067 6.66663 9.33333 6.66663ZM9.33333 7.58663C9.74666 7.58663 10.08 7.92663 10.08 8.33329C10.08 8.73996 9.74 9.07996 9.33333 9.07996C8.92666 9.07996 8.58666 8.73996 8.58666 8.33329C8.58666 7.92663 8.92 7.58663 9.33333 7.58663ZM9.33333 11.1666C8.71333 11.1666 8.17333 10.86 7.84 10.3866C7.87333 9.90663 8.84666 9.66663 9.33333 9.66663C9.82 9.66663 10.7933 9.90663 10.8267 10.3866C10.4933 10.86 9.95333 11.1666 9.33333 11.1666Z"
          fill="#828B97"/>
</svg>
